<svg width="47" height="50" viewBox="0 0 47 50" fill="none" xmlns="http://www.w3.org/2000/svg">
<path d="M18.4274 11.4826C17.9379 10.0021 17.5096 8.58468 16.9896 7.19871C16.9896 6.97822 16.5307 6.82072 16.2553 6.69473C15.7543 6.49829 15.3073 6.17928 14.9527 5.76523C14.5982 5.35117 14.3469 4.85452 14.2204 4.31812C14.0939 3.78172 14.0961 3.22169 14.2268 2.68636C14.3574 2.15102 14.6127 1.65647 14.9704 1.24537C15.5032 0.617144 16.2469 0.219389 17.0525 0.131773C17.8581 0.0441558 18.6661 0.273147 19.3146 0.77288C19.9853 1.28905 20.4383 2.05018 20.5805 2.89973C20.7228 3.74929 20.5435 4.62267 20.0795 5.34026C19.9035 5.55599 19.7924 5.81986 19.7598 6.09958C19.7272 6.37931 19.7745 6.66275 19.8959 6.91522C20.416 8.33269 20.8749 9.75015 21.3644 11.1676H25.1273C25.7086 9.49816 26.3204 7.7972 26.8405 6.12774C26.8405 5.93875 26.8405 5.62376 26.5652 5.40326C26.2029 4.80885 26.0211 4.11671 26.0429 3.41534C26.0647 2.71396 26.2891 2.03521 26.6876 1.46586C27.0379 0.895228 27.557 0.455577 28.1684 0.211717C28.7798 -0.032144 29.4511 -0.0673117 30.0834 0.111397C30.766 0.290911 31.3723 0.696486 31.809 1.26566C32.2457 1.83484 32.4886 2.53605 32.5002 3.26132C32.5622 4.02094 32.3545 4.77793 31.9157 5.39191C31.4769 6.00589 30.8368 6.4352 30.114 6.60023C29.8975 6.63932 29.6973 6.7442 29.5392 6.90137C29.3811 7.05855 29.2723 7.26083 29.2268 7.48221C28.8291 8.74218 28.4008 9.97064 27.9725 11.2621L30.6035 11.7976C33.8574 12.5804 36.8753 14.1728 39.3928 16.4353C41.9102 18.6978 43.8504 21.5614 45.0434 24.7753C46.8245 28.9836 47.3978 33.6292 46.6954 38.1624C46.2589 40.9337 44.7739 43.4141 42.5654 45.0607C40.1693 46.8524 37.441 48.1175 34.55 48.7776C29.3879 49.9295 24.0861 50.2694 18.8251 49.7856C15.5434 49.6686 12.3051 48.9762 9.24951 47.7382C7.74107 47.0956 6.29648 46.3045 4.93589 45.3757C3.50683 44.42 2.31996 43.1268 1.47393 41.6038C0.627894 40.0807 0.147131 38.3718 0.071598 36.619C-0.371304 30.5324 1.25058 24.4761 4.66056 19.4834C7.68692 15.2945 12.1925 12.4998 17.2037 11.7031L18.4274 11.4826ZM23.8118 39.8319C25.5966 39.8045 28.3702 39.4854 28.3702 39.4854C31.0823 39.3204 33.7592 38.7692 36.3244 37.8474C37.9719 37.2823 39.3923 36.1735 40.3658 34.6929C41.3392 33.2123 41.8112 31.4425 41.7087 29.6576C41.594 26.4621 40.4168 23.4041 38.3741 20.9954C35.8663 18.2308 32.5238 16.4212 28.8903 15.861C25.1381 15.045 21.2618 15.045 17.5096 15.861C15.4499 16.283 13.4873 17.1062 11.7276 18.2864C9.79711 19.5823 8.22122 21.3656 7.15013 23.4665C6.07903 25.5674 5.54844 27.9157 5.60894 30.2876C5.56798 31.3751 5.7798 32.4569 6.22678 33.4431C6.67375 34.4292 7.34297 35.2913 8.17876 35.9575C9.38541 37.0038 10.7927 37.7766 12.3088 38.2254C19.3452 39.8319 19.279 39.9015 23.8118 39.8319Z" fill="#2a3342"/>
<path d="M19.0395 27.2005C19.0395 28.0194 19.0395 28.8384 19.0395 29.6259C19.0395 30.219 18.8107 30.7879 18.4033 31.2073C17.996 31.6267 17.4435 31.8623 16.8674 31.8623C16.2913 31.8623 15.7389 31.6267 15.3315 31.2073C14.9242 30.7879 14.6953 30.219 14.6953 29.6259C14.6953 28.0194 14.6953 26.476 14.6953 24.775C14.6953 24.1819 14.9242 23.613 15.3315 23.1936C15.7389 22.7742 16.2913 22.5386 16.8674 22.5386C17.4435 22.5386 17.996 22.7742 18.4033 23.1936C18.8107 23.613 19.0395 24.1819 19.0395 24.775C19.0701 25.594 19.0395 26.3815 19.0395 27.2005Z" fill="#2a3342"/>
<path d="M32.347 27.2007V29.7837C32.347 30.3768 32.1182 30.9457 31.7108 31.3651C31.3035 31.7845 30.751 32.0201 30.1749 32.0201C29.5988 32.0201 29.0464 31.7845 28.639 31.3651C28.2317 30.9457 28.0028 30.3768 28.0028 29.7837C28.0028 28.0617 28.0028 26.3293 28.0028 24.5863C27.9945 24.2847 28.0456 23.9844 28.153 23.7037C28.2604 23.4229 28.4218 23.1674 28.6276 22.9526C28.8334 22.7378 29.0793 22.568 29.3504 22.4536C29.6216 22.3392 29.9125 22.2825 30.2055 22.2869C30.7925 22.3115 31.3464 22.5732 31.7473 23.0154C32.1481 23.4576 32.3636 24.0447 32.347 24.6493V27.2007Z" fill="#2a3342"/>
</svg>
